<svg height="140" viewBox="0 0 202 140" width="202" xmlns="http://www.w3.org/2000/svg"><path d="M103.71 37.2l1.57-.32 1.26-.86.85-1.26.32-1.56v-6.64l-.32-1.57-.85-1.26-1.26-.85-1.57-.32H14.15l-1.57.32-1.26.85-.85 1.26-.32 1.57v6.64l.32 1.56.85 1.26 1.26.86 1.57.32h89.56zm0-1H14.15l-1.14-.23-.93-.6-.64-.89-.29-1.11v-6.81l.22-1.14.6-.92.89-.65 1.11-.28.18-.01h89.56l1.13.22.93.6.65.89.28 1.11.01.18v6.64l-.23 1.13-.59.93-.89.65-1.12.28-.17.01z" fill="#c3c3c4"/><path d="M56.52 29.77v-1H18.79v1zM76.5 28.77v1H61.48v-1z" fill="#1f74ff"/><path d="M37.48 15.96v1H9.65v-1z" fill="#c3c3c4"/><path d="M82.71 12.2l3.11.29 2.86.77 2.64 1.27 2.4 1.69 2.03 2.04 1.7 2.39 1.26 2.65.78 2.85.29 3.12-.29 3.11-.78 2.86-1.26 2.65-1.7 2.39-2.03 2.03-2.4 1.7-2.64 1.26-2.86.78-3.11.29-3.12-.29-2.85-.78-2.65-1.26-2.4-1.7-2.03-2.03-1.69-2.39-1.27-2.65-.78-2.86-.29-3.11.29-3.12.78-2.85 1.27-2.65 1.69-2.39 2.03-2.04 2.4-1.69 2.65-1.27 2.85-.77 3.12-.29zm0 1l-2.94.27-2.69.73-2.49 1.19-2.25 1.6-1.91 1.91-1.6 2.26-1.19 2.49-.73 2.68-.28 2.94.28 2.93.73 2.69 1.19 2.49 1.6 2.26 1.91 1.91 2.25 1.6 2.49 1.19 2.69.73 2.94.27 2.93-.27 2.69-.73 2.49-1.19 2.26-1.6 1.91-1.91 1.6-2.26 1.18-2.49.74-2.69.27-2.93-.27-2.94-.74-2.68-1.18-2.49-1.6-2.26-1.91-1.91-2.26-1.6-2.49-1.19-2.69-.73-2.93-.27z" fill="#1f74ff"/><path d="M75.05 69.5l1.57-.32 1.26-.86.85-1.25.32-1.57v-6.64l-.32-1.57-.85-1.26-1.26-.85-1.57-.32h-6.64l-1.56.32-1.26.85-.86 1.26-.32 1.57v6.64l.32 1.57.86 1.25 1.26.86 1.56.32h6.64zm0-1h-6.64l-1.13-.23-.93-.59-.65-.89-.28-1.12-.01-.17v-6.64l.23-1.14.6-.92.89-.65 1.11-.28.17-.01h6.64l1.14.23.92.59.65.89.28 1.12.01.17v6.64l-.22 1.13-.6.93-.89.65-1.11.28-.18.01z" fill="#c3c3c4"/><path d="M75.74 58.83l.75.66-5.1 5.81-3.81-3.17.63-.77 3.07 2.55z" fill="#1f74ff"/><path d="M136.26 61.68v1H84.04v-1zM130.69 66.56v1h-47v-1zM123.19 56.8v1h-39.5v-1z" fill="#c3c3c4"/><path d="M113.28 51.9l2.79-2.43 2.95-1.95 3.13-1.52 3.31-1.09 3.36-.65 3.43-.22 3.43.22 3.36.65 3.31 1.09 3.13 1.52 2.96 1.95 2.78 2.43 2.43 2.78 1.95 2.96 1.52 3.13 1.09 3.31.65 3.36.22 3.43-.22 3.43-.65 3.36-1.09 3.31-1.52 3.13-1.95 2.95-2.43 2.79-2.78 2.43-2.96 1.95-3.13 1.51-3.31 1.1-3.36.65-3.43.22-3.43-.22-3.36-.65-3.31-1.1-3.13-1.51-2.95-1.95-2.79-2.43-2.43-2.79-1.95-2.95-1.51-3.13-1.1-3.31-.65-3.36-.22-3.43.22-3.43.65-3.36 1.1-3.31 1.51-3.13 1.95-2.96 2.43-2.78zm.71.71l-2.34 2.68-1.88 2.84-1.46 3.02-1.05 3.19-.63 3.23-.21 3.3.21 3.3.63 3.23 1.05 3.19 1.46 3.02 1.88 2.84 2.34 2.68 2.68 2.34 2.84 1.88 3.02 1.46 3.19 1.05 3.23.63 3.3.21 3.3-.21 3.23-.63 3.19-1.05 3.02-1.46 2.84-1.88 2.68-2.34 2.34-2.68 1.88-2.84 1.46-3.02 1.05-3.19.63-3.23.21-3.3-.21-3.3-.63-3.23-1.05-3.19-1.46-3.02-1.88-2.84-2.34-2.68-2.68-2.34-2.84-1.88-3.02-1.46-3.19-1.05-3.23-.63-3.3-.21-3.3.21-3.23.63-3.19 1.05-3.02 1.46-2.84 1.88-2.68 2.34z"/><path d="M151.22 89.13l5.88 5.88-.7.71-5.89-5.88z"/><path d="M159.85 91.56l25 25.01-6.9 6.9-25-25.01 6.9-6.9zm-.01 1.42l-5.48 5.48 23.59 23.6 5.49-5.49-23.6-23.59zM40.87 81.28l-1.72 1.43-1.83 1.05-1.98.7-2.06.35h-2.06l-2.06-.35-1.98-.7-1.83-1.05-1.72-1.43-1.43-1.72-1.05-1.84-.7-1.97-.35-2.07v-2.05l.35-2.07.7-1.97 1.05-1.84 1.43-1.72 1.72-1.42 1.83-1.05 1.98-.7 2.06-.35h2.06l2.06.35 1.98.7 1.83 1.05 1.72 1.42 1.43 1.72 1.05 1.84.7 1.97.35 2.07v2.05l-.35 2.07-.7 1.97-1.05 1.84-1.43 1.72zm-.7-.71l1.31-1.58.96-1.68.64-1.81.32-1.9v-1.88l-.32-1.9-.64-1.81-.96-1.69-1.31-1.58-1.58-1.31-1.69-.96-1.81-.64-1.9-.33h-1.88l-1.9.33-1.81.64-1.69.96-1.58 1.31-1.31 1.58-.96 1.69-.64 1.81-.33 1.9v1.88l.33 1.9.64 1.81.96 1.68 1.31 1.58 1.58 1.31 1.69.97 1.81.64 1.9.32h1.88l1.9-.32 1.81-.64 1.69-.97 1.58-1.31z"/><path d="M23.63 64.74l-3.06-3.06.7-.7 3.06 3.05z"/><path d="M19.71 63.25L8.34 51.88l3.14-3.13 11.36 11.36-3.13 3.14zm0-1.41l1.72-1.73-9.95-9.95-1.73 1.72 9.96 9.96z"/><path d="M106.76 115.85l1.56-.32 1.26-.85.86-1.26.32-1.57V91.8l-.32-1.56-.86-1.26-1.26-.86-1.56-.32H35.49l-1.57.32-1.26.86-.85 1.26-.32 1.56v20.05l.32 1.57.85 1.26 1.26.85 1.57.32h71.27zm0-1H35.49l-1.14-.22-.92-.6-.65-.89-.29-1.11V91.8l.22-1.13.6-.93.89-.65 1.11-.28.18-.01h71.27l1.13.23.93.6.65.89.28 1.11.01.17v20.05l-.23 1.14-.6.93-.89.64-1.11.29h-.17z" fill="#1f74ff"/><path d="M31.49 109.76h79.27V91.8l-.32-1.56-.86-1.26-1.26-.86-1.56-.32H35.49l-1.57.32-1.26.86-.85 1.26-.32 1.56v17.96z" fill="#1f74ff" fill-rule="evenodd"/><path d="M63.05 103.97l1.23-.15 1-.43.82-.7.78-1.36.28-1.8-.28-1.81-.78-1.37-.82-.71-1-.42-1.22-.15-1.23.15-1 .43-.81.71-.78 1.37-.28 1.8.28 1.79.78 1.37.81.7 1 .43 1.22.15zm0-.87l-1.34-.26-.97-.75-.59-1.09-.21-1.47.22-1.48.58-1.09.99-.75 1.33-.27 1.34.26.97.73.58 1.09.22 1.51-.21 1.5-.59 1.08-.98.73-1.34.26zm10.6.7v-3l1.33-1.26 3.78 4.26h1.32l-4.41-4.89 3.87-3.67h-1.28l-4.61 4.45v-4.45h-.98v8.56h.98z" fill="#fff"/><path d="M49.34 119.61l.24-.97 5.16 1.28-1 4.85-.98-.2.81-3.91zM97.04 17.03l3.45-3.57-.7-.72-3.49 3.62.74.67zm7.14-6.89l3.96-2.98-.56-.83-4.03 3.04.63.77zm8.22-5.51l2.28-1.08 2.25-.86-.32-.94-2.32.88-2.35 1.11.46.89zm9.29-3.13l2.46-.27 2.44-.05.03-1-2.54.05-2.54.28.15.99zm9.84.28l2.34.6 2.37.83.36-.93-2.44-.85-2.42-.63-.21.98zm9.11 3.51l4.17 2.65.58-.81-4.27-2.71-.48.87zm8.09 5.73l3.65 3.37.7-.71-3.7-3.42-.65.76zm7.08 6.99l1.6 1.98 1.37 1.96.84-.55-1.42-2.01-1.64-2.03-.75.65zm5.31 8.26l.89 2.34.62 2.33.98-.21-.65-2.43-.92-2.43-.92.4zm2.02 9.53l-.14 2.43-.4 2.44.98.21.42-2.54.14-2.53-1-.01zm-2.07 9.59l-1.04 2.17-1.26 2.17.84.54 1.31-2.24 1.07-2.25-.92-.39zm-5.24 8.33l-3.39 3.6.69.72 3.47-3.67-.77-.65zm-7.11 6.81l-4.02 2.89.55.84 4.09-2.95-.62-.78zm-8.3 5.49l-4.41 2.26.42.91 4.48-2.3-.49-.87zm-9.02 4.26l-4.67 1.69.31.95 4.73-1.71-.37-.93zm-9.48 3.12l-4.84 1.14.2.98 4.89-1.15-.25-.97zm-9.7 2.01l-4.94.6.09.99 4.99-.6-.14-.99zm-9.88.92l-4.97.05-.02 1 5.02-.05-.03-1zm-9.94-.19l-4.94-.53-.14.99 5 .54.08-1zm-9.83-1.35l-1.93-.41-2.96-.63-.2.98 1.95.41.99.21 1.96.42.19-.98zm-9.84-1.92l-4.98-.66-.1 1 4.93.65.15-.99zm-9.99-1.06l-5.03-.13v1l4.97.13.06-1zm-10.08.06l-5.01.54.14.99 4.94-.53-.07-1zm-9.96 1.45l-4.86 1.34.31.95 4.78-1.31-.23-.98zm-9.6 3.16l-4.5 2.3.5.86 4.4-2.25-.4-.91zm-8.72 5.13l-1.98 1.63-1.83 1.72.71.71 1.78-1.68 1.93-1.58-.61-.8zm-7.09 7.18l-1.44 2.11-1.26 2.19.88.46 1.22-2.12 1.4-2.05-.8-.59zm-4.72 9l-.72 2.44-.52 2.48.99.17.5-2.41.7-2.36-.95-.32zm-1.68 10.04l.09 2.54.29 2.53.99-.15-.28-2.46-.09-2.45-1-.01zm2.71 9.72l1.54 2.14 1.61 1.86.72-.69-1.55-1.79-1.48-2.06-.84.54zm7.1 7.29l2.25 1.25 2.38.95.31-.95-2.26-.9-2.14-1.19-.54.84zm9.66 3.17l2.47.06 2.62-.19-.11-.99-2.54.18-2.36-.06-.08 1zm10.16-1.11l4.81-1.56-.36-.93-4.71 1.52.26.97z" fill="#1f74ff"/></svg>