<svg width="32" height="32" viewBox="0 0 32 32" fill="none" xmlns="http://www.w3.org/2000/svg">
<g id="map_4place_nor" clip-path="url(#clip0_47_42744)">
<circle id="bg" cx="16" cy="16" r="16" fill="url(#paint0_linear_47_42744)"/>
<path id="Vector" d="M25.3332 23.6143H24.6664V13.9229C24.6646 13.1891 24.3832 12.4858 23.8836 11.9669C23.384 11.4479 22.7068 11.1554 22.0001 11.1534H18.0003V22.922C18.0012 23.0132 17.9846 23.1036 17.9514 23.188C17.9182 23.2725 17.8691 23.3491 17.807 23.4136C17.7449 23.4781 17.6711 23.5291 17.5898 23.5635C17.5085 23.598 17.4214 23.6153 17.3336 23.6143C17.2457 23.6153 17.1586 23.598 17.0773 23.5635C16.996 23.5291 16.9222 23.4781 16.8601 23.4136C16.798 23.3491 16.7489 23.2725 16.7157 23.188C16.6825 23.1036 16.6659 23.0132 16.6668 22.922V9.76862C16.6648 9.03482 16.3831 8.33168 15.8834 7.81288C15.3836 7.29409 14.7063 7.00183 13.9997 7H9.99985C9.29333 7.00206 8.6163 7.29442 8.11671 7.81319C7.61712 8.33196 7.33557 9.03497 7.33359 9.76862V23.6152H6.66681C6.579 23.6143 6.49189 23.6316 6.41059 23.666C6.32929 23.7005 6.25543 23.7515 6.19334 23.8159C6.13124 23.8804 6.08216 23.9571 6.04897 24.0415C6.01578 24.126 5.99914 24.2164 6.00003 24.3076C5.99914 24.3988 6.01578 24.4892 6.04897 24.5736C6.08216 24.6581 6.13124 24.7348 6.19334 24.7992C6.25543 24.8637 6.32929 24.9147 6.41059 24.9492C6.49189 24.9836 6.579 25.0009 6.66681 25H25.3332C25.421 25.0009 25.5081 24.9836 25.5894 24.9492C25.6707 24.9147 25.7446 24.8637 25.8067 24.7992C25.8688 24.7348 25.9178 24.6581 25.951 24.5736C25.9842 24.4892 26.0009 24.3988 26 24.3076C26.0009 24.2164 25.9842 24.126 25.951 24.0415C25.9178 23.9571 25.8688 23.8804 25.8067 23.8159C25.7446 23.7515 25.6707 23.7005 25.5894 23.666C25.5081 23.6316 25.421 23.6143 25.3332 23.6152V23.6143ZM13.3337 20.8449H10.6666C10.5789 20.8458 10.4919 20.8285 10.4106 20.7941C10.3294 20.7597 10.2555 20.7088 10.1935 20.6444C10.1314 20.5801 10.0823 20.5035 10.049 20.4191C10.0158 20.3348 9.99907 20.2445 9.99985 20.1534C9.99896 20.0622 10.0156 19.9717 10.0488 19.8873C10.082 19.8029 10.1311 19.7262 10.1932 19.6617C10.2553 19.5972 10.3291 19.5463 10.4104 19.5118C10.4917 19.4773 10.5788 19.4601 10.6666 19.461H13.3337C13.4215 19.4602 13.5085 19.4775 13.5897 19.512C13.6709 19.5466 13.7447 19.5975 13.8067 19.662C13.8687 19.7265 13.9177 19.8031 13.9508 19.8875C13.984 19.9719 14.0006 20.0622 13.9997 20.1534C14.0005 20.2444 13.9838 20.3347 13.9506 20.4189C13.9174 20.5032 13.8684 20.5798 13.8064 20.6441C13.7444 20.7085 13.6706 20.7594 13.5895 20.7939C13.5083 20.8283 13.4214 20.8457 13.3337 20.8449ZM13.3337 16.6915H10.6666C10.5788 16.6924 10.4917 16.6751 10.4104 16.6407C10.3291 16.6062 10.2553 16.5552 10.1932 16.4908C10.1311 16.4263 10.082 16.3496 10.0488 16.2652C10.0156 16.1807 9.99896 16.0903 9.99985 15.9991C9.99896 15.9079 10.0156 15.8175 10.0488 15.7331C10.082 15.6486 10.1311 15.5719 10.1932 15.5075C10.2553 15.443 10.3291 15.392 10.4104 15.3576C10.4917 15.3231 10.5788 15.3058 10.6666 15.3067H13.3337C13.4215 15.3059 13.5085 15.3233 13.5897 15.3578C13.6709 15.3923 13.7447 15.4433 13.8067 15.5078C13.8687 15.5722 13.9177 15.6489 13.9508 15.7333C13.984 15.8176 14.0006 15.908 13.9997 15.9991C14.0006 16.0902 13.984 16.1806 13.9508 16.265C13.9177 16.3493 13.8687 16.426 13.8067 16.4905C13.7447 16.5549 13.6709 16.6059 13.5897 16.6404C13.5085 16.6749 13.4215 16.6923 13.3337 16.6915ZM13.3337 12.5381H10.6666C10.5788 12.539 10.4917 12.5218 10.4104 12.4873C10.3291 12.4528 10.2553 12.4019 10.1932 12.3374C10.1311 12.2729 10.082 12.1962 10.0488 12.1118C10.0156 12.0274 9.99896 11.9369 9.99985 11.8457C9.99896 11.7546 10.0156 11.6641 10.0488 11.5797C10.082 11.4953 10.1311 11.4186 10.1932 11.3541C10.2553 11.2896 10.3291 11.2387 10.4104 11.2042C10.4917 11.1697 10.5788 11.1524 10.6666 11.1534H13.3337C13.4215 11.1526 13.5085 11.1699 13.5897 11.2044C13.6709 11.239 13.7447 11.2899 13.8067 11.3544C13.8687 11.4189 13.9177 11.4955 13.9508 11.5799C13.984 11.6643 14.0006 11.7546 13.9997 11.8457C14.0006 11.9369 13.984 12.0272 13.9508 12.1116C13.9177 12.196 13.8687 12.2726 13.8067 12.3371C13.7447 12.4015 13.6709 12.4525 13.5897 12.487C13.5085 12.5216 13.4215 12.5389 13.3337 12.5381ZM22.6669 20.8449H19.9998C19.9121 20.8458 19.825 20.8285 19.7438 20.7941C19.6626 20.7597 19.5887 20.7088 19.5266 20.6444C19.4646 20.5801 19.4155 20.5035 19.3822 20.4191C19.349 20.3348 19.3323 20.2445 19.333 20.1534C19.3321 20.0622 19.3488 19.9717 19.382 19.8873C19.4152 19.8029 19.4643 19.7262 19.5263 19.6617C19.5884 19.5972 19.6623 19.5463 19.7436 19.5118C19.8249 19.4773 19.912 19.4601 19.9998 19.461H22.6669C22.7547 19.4601 22.8418 19.4773 22.9231 19.5118C23.0044 19.5463 23.0783 19.5972 23.1404 19.6617C23.2025 19.7262 23.2516 19.8029 23.2848 19.8873C23.318 19.9717 23.3346 20.0622 23.3337 20.1534C23.3345 20.2445 23.3178 20.3348 23.2845 20.4191C23.2513 20.5035 23.2022 20.5801 23.1401 20.6444C23.078 20.7088 23.0042 20.7597 22.9229 20.7941C22.8417 20.8285 22.7547 20.8458 22.6669 20.8449ZM22.6669 16.6915H19.9998C19.912 16.6924 19.8249 16.6751 19.7436 16.6407C19.6623 16.6062 19.5884 16.5552 19.5263 16.4908C19.4643 16.4263 19.4152 16.3496 19.382 16.2652C19.3488 16.1807 19.3321 16.0903 19.333 15.9991C19.3321 15.9079 19.3488 15.8175 19.382 15.7331C19.4152 15.6486 19.4643 15.5719 19.5263 15.5075C19.5884 15.443 19.6623 15.392 19.7436 15.3576C19.8249 15.3231 19.912 15.3058 19.9998 15.3067H22.6669C22.7547 15.3058 22.8418 15.3231 22.9231 15.3576C23.0044 15.392 23.0783 15.443 23.1404 15.5075C23.2025 15.5719 23.2516 15.6486 23.2848 15.7331C23.318 15.8175 23.3346 15.9079 23.3337 15.9991C23.3346 16.0903 23.318 16.1807 23.2848 16.2652C23.2516 16.3496 23.2025 16.4263 23.1404 16.4908C23.0783 16.5552 23.0044 16.6062 22.9231 16.6407C22.8418 16.6751 22.7547 16.6924 22.6669 16.6915Z" fill="white"/>
</g>
<defs>
<linearGradient id="paint0_linear_47_42744" x1="32" y1="32" x2="4.73448e-07" y2="-4.73448e-07" gradientUnits="userSpaceOnUse">
<stop stop-color="#375CFE"/>
<stop offset="1" stop-color="#3899FF"/>
</linearGradient>
<clipPath id="clip0_47_42744">
<rect width="32" height="32" fill="white"/>
</clipPath>
</defs>
</svg>
