<svg width="171" height="150" viewBox="0 0 171 150" xmlns="http://www.w3.org/2000/svg"><g fill="none" fill-rule="evenodd"><path d="M63.71 0v17.132c0 8.454-6.77 15.328-15.184 15.496l-.316.004H18.435c-7.903 0-14.329 6.322-14.497 14.184l-.003.316v38.74c0 7.903 6.322 14.33 14.185 14.497l.315.004h74.692c8.455 0 15.328 6.769 15.497 15.183l.003.317v4.928c0 7.903 6.322 14.33 14.184 14.497l.316.003h7.233v1h-7.233c-8.455 0-15.329-6.77-15.497-15.184l-.003-.316v-4.928c0-7.903-6.322-14.33-14.185-14.497l-.315-.003H18.435c-8.455 0-15.328-6.77-15.497-15.184l-.003-.316V47.132c0-8.455 6.77-15.329 15.184-15.497l.316-.003H48.21c7.903 0 14.329-6.323 14.497-14.185l.003-.315V0h1z" fill="#000" fill-rule="nonzero"/><path d="M66.412 5.725v6.87h-6.87v-6.87h6.87zm-1 1h-4.871v4.87h4.871v-4.87zM46.947 28.626v6.87h-6.87v-6.87h6.87zm-1.001.999h-4.87v4.871h4.87v-4.871zM24.046 28.626v6.87h-6.87v-6.87h6.87zm-1.001.999h-4.87v4.871h4.87v-4.871zM24.046 97.328v6.87h-6.87v-6.87h6.87zm-1.001 1h-4.87v4.87h4.87v-4.87zM112.214 115.649v6.87h-6.87v-6.87h6.87zm-1.001.999h-4.87v4.871h4.87v-4.871zM6.87 80.153v6.87H0v-6.87h6.87zm-1 .999H1v4.87h4.87v-4.87z" fill="#000" fill-rule="nonzero"/><path fill="#1f74ff" d="M0 45.802h6.87v6.87H0zM84.733 97.328h6.87v6.87h-6.87z"/><path d="M95.038 18.32c16.442 0 29.771 13.33 29.771 29.772s-13.329 29.77-29.77 29.77c-16.443 0-29.772-13.328-29.772-29.77S78.597 18.32 95.038 18.32zm0 1c-15.89 0-28.77 12.882-28.77 28.772 0 15.89 12.88 28.77 28.77 28.77 15.89 0 28.771-12.88 28.771-28.77 0-15.89-12.881-28.771-28.77-28.771z" fill="#C3C3C4" fill-rule="nonzero"/><path d="M157.716 42.064c7.178 26.787-8.345 54.275-34.735 61.81l-.803.222-13.632-50.877 48.502-12.996c.272.584.496 1.198.668 1.841zm-.966.26a10.441 10.441 0 0 0-.27-.859l-.018-.05-46.691 12.51 13.112 48.935.597-.176c25.166-7.627 39.928-33.857 33.474-59.574l-.204-.787z" fill="#1f74ff" fill-rule="nonzero"/><path d="M124.8 48.864c-.235 9.18-4.624 17.326-11.357 22.63l-4.897-18.275z" fill="#1f74ff"/><g><path d="M108.779 49.237L32.06 125.954V49.237h76.718zM62.977 69.275H50.382V81.87l12.595-12.595z" fill="#FFF"/><path d="M62.977 69.275L50.382 81.87V69.275h12.595zm-2.415 1h-9.18v9.18l9.18-9.18z" fill="#1f74ff" fill-rule="nonzero"/><path d="M108.779 49.237L32.06 125.954V49.237h76.718zm-2.415 1H33.061v73.303l73.303-73.303z" fill="#1f74ff" fill-rule="nonzero"/><path fill="#1f74ff" fill-rule="nonzero" d="M39.576 57.18h1v-7.87h-1zM48.737 57.18h1v-7.87h-1zM57.897 57.18h1v-7.87h-1zM67.057 57.18h1v-7.87h-1zM76.218 57.18h1v-7.87h-1zM85.378 57.18h1v-7.87h-1zM94.538 57.18h1v-7.87h-1z"/></g><g fill="#1f74ff" fill-rule="nonzero"><path d="M98.231 109.593l-8.906 23.48-10.526 7.287-11.335-11.335 7.287-10.525 23.48-8.907zm-1.723 1.723l-21.112 8.007-6.635 9.585 10.155 10.154 9.584-6.635 8.008-21.11z"/><path d="M84.467 123.358a3.435 3.435 0 1 1-4.858 4.858 3.435 3.435 0 0 1 4.858-4.858zm-.707.707a2.435 2.435 0 1 0-3.444 3.443 2.435 2.435 0 0 0 3.444-3.443z"/><path d="M97 111.532l-12.18 12.18-.707-.708 12.18-12.18zM82.038 141.98l-7.287 7.287-16.193-16.194 7.287-7.286 16.193 16.193zm-1.415 0L65.845 127.2l-5.873 5.873 14.779 14.779 5.872-5.873z"/></g></g></svg>