<svg height="141" viewBox="0 0 179 141" width="179" xmlns="http://www.w3.org/2000/svg"><path d="M140.94 0l.71.29.29.71v72l-.29.71-.71.29h-114l-.71-.29-.29-.71V1l.29-.71.71-.29h114zm0 1h-114v72h114V1z" fill="#c3c3c4"/><path d="M60.05 4.4v1h-7.51v-1zM137.06 3.26l.64.13.51.35.35.52.13.64-.13.64-.35.51-.51.35-.64.13-.64-.13-.51-.35-.35-.51-.13-.64.13-.64.35-.52.51-.35.64-.13zm0 1l-.44.19-.19.45.19.45.44.18.44-.18.19-.45-.19-.45-.44-.19zM132.72 3.26l.64.13.51.35.35.52.13.64-.13.64-.35.51-.51.35-.64.13-.63-.13-.52-.35-.34-.51-.13-.64.13-.64.34-.52.52-.35.63-.13zm0 1l-.44.19-.18.45.18.45.44.18.45-.18.18-.45-.18-.45-.45-.19zM128.39 3.26l.63.13.52.35.34.52.13.64-.13.64-.34.51-.52.35-.63.13-.64-.13-.51-.35-.35-.51-.13-.64.13-.64.35-.52.51-.35.64-.13zm0 1l-.44.19-.19.45.19.45.44.18.44-.18.18-.45-.18-.45-.44-.19z" fill="#1f74ff"/><path d="M40.03 14.15l1.47.21 1.27.52 1.09.86.86 1.1.52 1.27.21 1.48-.21 1.48-.52 1.26-.86 1.11-1.09.85-1.27.53-1.47.21-1.47-.21-1.26-.53-1.1-.85-.85-1.11-.53-1.26-.21-1.48.21-1.48.53-1.27.85-1.1 1.1-.86 1.26-.52 1.47-.21zm0 1l-1.2.17-1.03.43-.89.7-.7.9-.43 1.03-.17 1.21.17 1.2.43 1.04.7.9.89.7 1.03.43 1.2.17 1.2-.17 1.03-.43.9-.7.69-.9.43-1.04.17-1.2-.17-1.21-.43-1.03-.69-.9-.9-.7-1.03-.43-1.2-.17z" fill="#c3c3c4"/><path d="M49.2 5.4v-1H30.86v1z" fill="#1f74ff"/><path d="M95.82 13.88h-1v-3h1v3zm0 6h-1v-3h1v3zm0 6h-1v-3h1v3zm0 6h-1v-3h1v3zm-3.56 3.44v-1h3v1h-3zm-6 0v-1h3v1h-3zm-6 0v-1h3v1h-3zm-6 0v-1h3v1h-3zm-6 0v-1h3v1h-3zm-6 0v-1h3v1h-3zm-4.3-2.7h1v2.2l-.5-.5h.8v1h-1.3v-2.7zm0-6h1v3h-1v-3zm0-6h1v3h-1v-3zm0-6h1v3h-1v-3zm2.76-4.24v1h-2.26l.5-.5v.74h-1v-1.24h2.76zm6 0v1h-3v-1h3zm6 0v1h-3v-1h3zm6 0v1h-3v-1h3zm6 0v1h-3v-1h3zm6 0v1h-3v-1h3zm4.6 0v1h-1.6v-1h1.6zM95.82 42.18h-1v-3h1v3zm0 6h-1v-3h1v3zm0 6h-1v-3h1v3zm0 6h-1v-3h1v3zm-3.56 3.44v-1h3v1h-3zm-6 0v-1h3v1h-3zm-6 0v-1h3v1h-3zm-6 0v-1h3v1h-3zm-6 0v-1h3v1h-3zm-6 0v-1h3v1h-3zm-4.3-2.7h1v2.2l-.5-.5h.8v1h-1.3v-2.7zm0-6h1v3h-1v-3zm0-6h1v3h-1v-3zm0-6h1v3h-1v-3zm2.76-4.24v1h-2.26l.5-.5v.74h-1v-1.24h2.76zm6 0v1h-3v-1h3zm6 0v1h-3v-1h3zm6 0v1h-3v-1h3zm6 0v1h-3v-1h3zm6 0v1h-3v-1h3zm4.6 0v1h-1.6v-1h1.6zM135.93 13.88h-1v-3h1v3zm0 6h-1v-3h1v3zm0 6h-1v-3h1v3zm0 6h-1v-3h1v3zm-3.56 3.44v-1h3v1h-3zm-6 0v-1h3v1h-3zm-6 0v-1h3v1h-3zm-6 0v-1h3v1h-3zm-6 0v-1h3v1h-3zm-6 0v-1h3v1h-3zm-4.3-2.7h1v2.2l-.5-.5h.8v1h-1.3v-2.7zm0-6h1v3h-1v-3zm0-6h1v3h-1v-3zm0-6h1v3h-1v-3zm2.76-4.24v1h-2.26l.5-.5v.74h-1v-1.24h2.76zm6 0v1h-3v-1h3zm6 0v1h-3v-1h3zm6 0v1h-3v-1h3zm6 0v1h-3v-1h3zm6 0v1h-3v-1h3zm4.6 0v1h-1.6v-1h1.6zM135.37 62.12h-3v2h3v-2zm-6 0h-3v2h3v-2zm-6 0h-3v2h3v-2zm-6 0h-3v2h3v-2zm-6 0h-3v2h3v-2zm-6 0h-3v2h3v-2zm-5.8-1.2h-2v3.2h1.8v-1h.2v-2.2zm-.2 1.2v1h-.8v-1h.8zm37.06-4.94h-2v3h2v-3zm-36.86-2.26h-2v3h2v-3zm36.86-3.74h-2v3h2v-3zm-36.86-2.26h-2v3h2v-3zm36.86-3.74h-2v3h2v-3zm-36.86-2.26h-2v3h2v-3zm36.86-3.74h-1v1h-1v2h2v-3zm-29.6-1h-3v2h3v-2zm6 0h-3v2h3v-2zm6 0h-3v2h3v-2zm6 0h-3v2h3v-2zm6 0h-3v2h3v-2zm4.6 0h-1.6v2h.6v-1h1v-1zm-34.6 0h-3.26v1.74h1v.26h2.26v-2zm-1.26 1v.74h-1v-.74h1zM80.24 23.38v-1h-8.58v1z" fill="#c3c3c4"/><path d="M76.47 27.19v-8.42h-1v8.42zM80.24 51.68v-1h-8.58v1z" fill="#c3c3c4"/><path d="M76.47 55.49v-8.43h-1v8.43zM123.61 23.38v-1h-8.59v1z" fill="#c3c3c4"/><path d="M119.83 27.19v-8.42h-1v8.42zM119.83 55.49v-8.43h-1v8.43z" fill="#c3c3c4"/><path d="M123.61 51.68v-1h-8.59v1zM45.95 33.69v-1H30.86v1zM49.2 40.22v-1H30.86v1zM51.37 53.28v-1H30.86v1zM51.37 59.81v-1H30.86v1zM45.95 46.75v-1H30.86v1z" fill="#c3c3c4"/><g><path d="M113.94 86l.71.29.29.71v53l-.29.71-.71.29h-64l-.71-.29-.29-.71V87l.29-.71.71-.29h64zm0 1h-64v53h64V87z" fill="#c1c1c3"/><path d="M104.62 102.29v-1H57.09v1zM88.93 99.65v-1l-31.84-.03v1zM104.62 98.87v-1h-4.25v1zM104.62 119.54v-1H57.09v1zM88.93 116.91v-1l-31.84-.03v1zM104.62 116.13v-1h-4.25v1z" fill="#c3c3c4"/><g><path d="M104.62 110.91v-1H57.09v1zM88.93 108.28v-1l-31.84-.03v1zM104.62 107.5v-1h-4.25v1z" fill="#c3c3c4"/></g><g><path d="M104.62 128.17v-1H57.09v1zM88.93 125.5v-1H58.72v1zM74.86 130.21v-1h-12.9v1zM104.62 124.75v-1h-4.25v1z" fill="#c3c3c4"/></g></g><g><path d="M83.94 29h95v51h-95z" fill="#fff" fill-rule="evenodd"/><path d="M178.94 29v51h-95V29h95zm-1 1h-93v49h93V30z"/><path d="M96.85 65.31V40.44h-1v24.87zM98.47 70.19v-1h-4.24v1zM118.44 65.31V40.44h-1v24.87zM120.06 70.19v-1h-4.24v1zM107.65 65.31V40.44h-1v24.87zM109.27 70.19v-1h-4.24v1zM129.24 65.31V40.44h-1v24.87zM130.86 70.19v-1h-4.24v1zM140.04 65.31V40.44h-1v24.87zM141.65 70.19v-1h-4.23v1zM166.48 50.66v-1h-18.27v1zM169.72 47.4v-1h-21.51v1z" fill="#c3c3c4"/><path d="M159.35 41.98v-1h-11.14v1z" fill="#1f74ff"/><path d="M169.72 53.91v-1h-21.51v1z" fill="#c3c3c4"/><g><path d="M153.53 67.48v-1h-5.32v1z" fill="#1f74ff"/></g><g><path d="M169.72 70.19v-1h-15.03v1z" fill="#c3c3c4"/></g><g><path d="M169.72 67.48v-1h-15.03v1z" fill="#c3c3c4"/></g><path d="M140.88 41.52l.11 1-11.5 1.37-11.22 10.74-11.05-8.71-11.1 8.45-.61-.8 11.72-8.91 10.97 8.65 10.84-10.38z" fill="#1f74ff"/><path d="M140.42 47.63l.68.74-10.04 9.17-.18.1-12.58 4.27-10.93-4.21-11.39 4.14-.34-.94 11.74-4.26 10.94 4.2 12.14-4.11zM153.53 70.19v-1h-5.32v1z"/></g><g><path d="M1.94 45h64l.71.29.29.71v77l-.29.71-.71.29h-64l-.71-.29-.29-.71V46l.29-.71.71-.29z" fill="#fff" fill-rule="evenodd"/><path d="M65.94 45l.71.29.29.71v77l-.29.71-.71.29h-64l-.71-.29-.29-.71V46l.29-.71.71-.29h64zm0 1h-64v77h64V46z" fill="#c1c1c3"/><path d="M56.62 87.16v-1H9.09v1z" fill="#c3c3c4"/><path d="M40.93 81.75v-1H9.09v1z" fill="#1f74ff"/><path d="M49.05 90.41v-1H9.09v1zM56.62 93.66v-1H9.09v1zM49.05 96.9v-1H9.09v1zM56.62 100.15v-1H9.09v1zM19.33 53.16l-1.87.17-1.71.47-1.59.76-1.43 1.01-1.22 1.22-1.02 1.44-.76 1.59-.46 1.71-.18 1.87.18 1.87.46 1.71.76 1.59L11.51 70l1.22 1.22 1.43 1.02 1.59.76 1.71.46 1.87.18 1.87-.18 1.71-.46 1.59-.76 1.44-1.02L27.15 70l1.02-1.43.76-1.59.47-1.71.17-1.87-.17-1.87-.47-1.71-.76-1.59-1.02-1.44-1.21-1.22-1.44-1.01-1.59-.76-1.71-.47-1.87-.17zm0 1l1.69.15 1.54.43 1.43.68 1.87 1.44 1.45 1.87.68 1.44.42 1.54.16 1.69-.16 1.68-.42 1.55-.68 1.43-1.45 1.87-1.87 1.45-1.43.68-1.54.42-1.69.16-1.68-.16-1.55-.42-1.43-.68-1.87-1.45-1.44-1.87-.69-1.43-.42-1.55-.16-1.68.16-1.69.42-1.54.69-1.44 1.44-1.87 1.87-1.44 1.43-.68 1.55-.43 1.68-.15zM46.38 53.16l-1.87.17-1.71.47-1.59.76-1.43 1.01-1.22 1.22-1.02 1.44-.76 1.59-.46 1.71-.18 1.87.18 1.87.46 1.71.76 1.59L38.56 70l1.22 1.22 1.43 1.02 1.59.76 1.71.46 1.87.18 1.87-.18 1.71-.46 1.59-.76 1.43-1.02L54.2 70l1.02-1.43.76-1.59.46-1.71.18-1.87-.18-1.87-.46-1.71-.76-1.59-1.02-1.44-1.22-1.22-1.43-1.01-1.59-.76-1.71-.47-1.87-.17zm0 1l1.69.15 1.54.43 1.43.68 1.87 1.44 1.45 1.87.68 1.44.42 1.54.16 1.69-.16 1.68-.42 1.55-.68 1.43-1.45 1.87-1.87 1.45-1.43.68-1.54.42-1.69.16-1.69-.16-1.54-.42-1.43-.68-1.87-1.45-1.45-1.87-.68-1.43-.42-1.55-.16-1.68.16-1.69.42-1.54.68-1.44 1.45-1.87 1.87-1.44 1.43-.68 1.54-.43 1.69-.15z" fill="#c3c3c4"/><path d="M29.57 63.4l-.17 1.87-.47 1.71-.76 1.59L27.15 70l-1.21 1.22-1.44 1.02-1.59.76-1.71.46-1.87.18-1.84-.17-1.68-.45-1.57-.74-1.42-.98-1.22-1.19-1.02-1.39-.77-1.55-.5-1.67-.21-1.82-.01-.28h1l.16 1.68.42 1.55.69 1.43 1.44 1.87 1.87 1.45 1.43.68 1.55.42 1.68.16 1.69-.16 1.54-.42 1.43-.68 1.87-1.45 1.45-1.87.68-1.43.42-1.55.16-1.68-.32-2.44-.9-2.15-1.4-1.86-1.81-1.45-2.13-.95-2.41-.39h-.27v-1l1.87.17 1.71.47 1.59.76 1.44 1.01 1.21 1.22 1.02 1.44.76 1.59.47 1.71.17 1.87zM56.12 63.4h-1l-.32-2.44-.9-2.15-1.4-1.86-1.81-1.45-2.13-.95-2.41-.39h-.27v-1l1.84.17 1.69.45 1.56.73 1.43.99 1.21 1.18 1.02 1.4.77 1.54.5 1.67.21 1.83.01.28z" fill="#1f74ff"/><path d="M23.08 63.36v-1h-7.49v1zM22 65.52v-1h-5.33v1zM50.13 64.44v-1h-7.49v1z"/><path d="M10.59 108.85h16.4l.7.29.3.71v4.49l-.3.71-.7.29h-16.4l-.7-.29-.3-.71v-4.49l.3-.71.7-.29z" fill="#1f74ff" fill-rule="evenodd"/></g></svg>