<svg t="1704858727201" class="icon" viewBox="0 0 1024 1024" version="1.1" xmlns="http://www.w3.org/2000/svg" p-id="86977" width="200" height="200"><path d="M176.128 591.872c-12.288 0-22.528-10.24-24.576-22.528-2.048-16.384-2.048-30.72-2.048-47.104 0-202.752 163.84-366.592 366.592-366.592 69.632 0 137.216 20.48 196.608 57.344 8.192 4.096 12.288 14.336 12.288 22.528 0 10.24-6.144 18.432-14.336 22.528-8.192 4.096-18.432 4.096-26.624-2.048-51.2-32.768-108.544-49.152-167.936-49.152-90.112 0-176.128 38.912-237.568 106.496-59.392 67.584-88.064 157.696-75.776 247.808 0 8.192-2.048 14.336-6.144 20.48-6.144 8.192-12.288 10.24-20.48 10.24z m337.92 296.96c-71.68 0-139.264-20.48-198.656-59.392-8.192-4.096-12.288-14.336-12.288-22.528 0-10.24 6.144-18.432 14.336-22.528 8.192-4.096 18.432-4.096 26.624 2.048 51.2 32.768 110.592 51.2 172.032 51.2 174.08 0 315.392-141.312 315.392-315.392 0-14.336 12.288-24.576 24.576-24.576 14.336 0 24.576 12.288 24.576 24.576 0 202.752-163.84 366.592-366.592 366.592z m-215.04-194.56H198.656L442.368 450.56h98.304L299.008 694.272zM593.92 595.968h-98.304L737.28 352.256h98.304L593.92 595.968z m0 0" p-id="86978"></path></svg>